<svg xmlns="http://www.w3.org/2000/svg" width="131.4" height="67">
  <path fill="#010101" d="M8.2 59.3l.5.2.2.4-.1.3L5 66.7c-.1.2-.3.3-.5.3a.5.5 0 0 1-.5-.3L.1 60.3l-.1-.4c0-.2 0-.3.2-.4l.5-.2c.3 0 .4.1.5.3l3.3 5.7 3.3-5.7c.1-.1.2-.3.4-.3M29.1 60.4l-.4.1h-7.1v2h7.1l.4.1.1.4-.1.5-.4.1h-7.1v2h7.1l.4.1c.1.1.2.3.1.5l-.1.4-.4.1h-7.6l-.5-.1-.1-.4v-6.4l.1-.4.5-.2h7.6l.4.2.1.4c.1.3 0 .5-.1.6m20.4 5.5c.2.1.2.3.2.4l-.1.5-.5.2-.4-.3-2.6-3h-3.9v2.6l-.1.4-.5.2-.4-.2-.1-.4v-6.4l.1-.4.4-.2h6.1c.6 0 1.1.3 1.6.7.4.4.7 1 .7 1.6 0 .5-.3 1.1-.7 1.5-.4.4-.9.7-1.4.7l1.9 2.2h-.3zm-7.4-3.4h5.4c.3 0 .5 0 .7-.3.2-.2.3-.4.3-.7s-.1-.5-.3-.7a1 1 0 0 0-.7-.3h-5.4v2zm27.8 4.3l-.4.1-.4-.1a.8.8 0 0 1-.2-.4v-5.2l-2.7 2.4c-.1.1-.3.2-.5.1l-.4-.1-2.7-2.4v5.2c0 .2-.1.3-.3.4l-.4.1-.4-.1a.8.8 0 0 1-.2-.4V60l.2-.4.4-.1.4.1 3.4 2.9 3.4-2.9.4-.1.4.1.2.4v6.4l-.2.4m13.3-6.4a4.6 4.6 0 0 1 6 0c.9.6 1.4 1.6 1.4 2.7s-.5 2.1-1.4 2.8c-.9.7-1.9 1-3 1s-2.1-.3-3-1a3.2 3.2 0 0 1-1.4-2.7c0-1.2.4-2 1.4-2.8m.8 4.7c.7.4 1.4.7 2.2.7s1.6-.3 2.2-.7c.7-.5 1-1.2 1-2 0-.7-.3-1.4-1-1.9s-1.4-.7-2.2-.7-1.6.2-2.2.7a2.3 2.3 0 0 0-.7 3.2l.7.7m25.8-5.2l.1-.4.5-.2.4.2.2.4v6.4l-.2.5c-.1.1-.3.2-.5.1l-.3-.1-6.6-5.6v5.2l-.2.4-.4.1-.5-.1-.1-.4V60l.1-.4.5-.2.4.2 6.6 5.6v-5.3zm21.4.5c-.1.1-.3.2-.5.1h-3.2v5.8l-.1.4c-.1.1-.3.2-.5.1l-.4-.1a.8.8 0 0 1-.2-.4v-5.8h-3.2l-.4-.1a.8.8 0 0 1-.2-.5l.2-.4.4-.2h7.6l.5.2.1.4c.1.2 0 .4-.1.5"/>
  <path fill="#EF4562" d="M56.7.1V11l9 4.8-9-15.7z"/>
  <path fill="#D31F43" d="M56.7.1l-9.1 15.6 9.1-4.6V.1z"/>
  <path fill="#F26D6C" d="M56.7 11.1l9 4.7H47.6l9.1-4.7z"/>
  <path fill="#EAE025" d="M47.6 4.8L51 3l5.6-3-1.4 2.4-5.4 9.4-1.4 2.4-.9 1.4V4.8h.1z"/>
  <path fill="#F6A11D" d="M38.6.1l9 15.6V4.8l-9-4.7z"/>
  <path fill="#E7C31F" d="M38.6.1l9 4.8L56.7.1H38.6z"/>
  <path fill="#3D66AC" d="M65.7 15.7l-9 15.6 9-4.7V15.7z"/>
  <path fill="#538BA4" d="M65.7 26.7l9 4.8-9-15.7v10.9z"/>
  <path fill="#68B0D1" d="M65.7 26.7l-9 4.8h18.1l-9.1-4.8z"/>
  <path fill="#C077B1" d="M56.7 31.4l9-15.7-9 4.8v10.9z"/>
  <path fill="#4F1A57" d="M56.7 20.5l-9.1-4.8 9.1 15.6V20.5z"/>
  <path fill="#912689" d="M56.7 20.5l9-4.8H47.6l9.1 4.8z"/>
  <path fill="#DD1A87" d="M74.7.1V11l9.1 4.8L74.7.1z"/>
  <path fill="#AE1E5B" d="M74.7.1l-9 15.6 9-4.6V.1z"/>
  <path fill="#EE4991" d="M74.7 11.1l9.1 4.7H65.7l9-4.7z"/>
  <path fill="#302D7C" d="M83.8 15.7V4.8L74.7 0l9.1 15.7z"/>
  <path fill="#8178B8" d="M92.9.1l-9 4.8v10.9l9-15.7z"/>
  <path fill="#534A9F" d="M74.7.1l9.1 4.8 9-4.8H74.7z"/>
  <path fill="#A51E22" d="M74.7 31.4l-9-15.7 9 4.8v10.9z"/>
  <path fill="#F04923" d="M74.7 20.5l9.1-4.8-9.1 15.6V20.5z"/>
  <path fill="#ED2224" d="M74.7 20.5l-9-4.8h18.1l-9.1 4.8z"/>
  <path fill="#60B646" d="M65.7 47l9-15.6-9 4.8V47z"/>
  <path fill="#325E2D" d="M65.7 36.2l-9-4.8 9 15.6V36.2z"/>
  <path fill="#3E7D3B" d="M65.7 36.2l9-4.8h-18l9 4.8z"/>
</svg>
